<?xml version="1.0" standalone="no"?>
<!DOCTYPE svg PUBLIC "-//W3C//DTD SVG 20010904//EN"
 "http://www.w3.org/TR/2001/REC-SVG-20010904/DTD/svg10.dtd">
<svg version="1.0" xmlns="http://www.w3.org/2000/svg"
 width="800.000000pt" height="800.000000pt" viewBox="0 0 800.000000 800.000000"
 preserveAspectRatio="xMidYMid meet">
<metadata>
Created by potrace 1.14, written by Peter Selinger 2001-2017
</metadata>
<g transform="translate(0.000000,800.000000) scale(0.100000,-0.100000)"
fill="#000000" stroke="none">
<path d="M3948 7171 c-80 -52 -148 -91 -157 -91 -5 0 -11 -3 -13 -8 -1 -4 -97
-63 -213 -132 -115 -69 -211 -128 -213 -132 -2 -5 -10 -8 -17 -8 -8 0 -20 -7
-29 -15 -8 -8 -23 -19 -33 -23 -20 -8 -215 -123 -223 -132 -3 -3 -18 -12 -35
-20 -16 -8 -32 -18 -35 -21 -3 -3 -20 -14 -39 -24 -19 -9 -39 -21 -45 -26 -6
-5 -65 -41 -131 -80 -152 -89 -112 -65 -395 -236 -135 -81 -254 -153 -265
-159 -23 -13 -1500 -900 -1530 -919 -11 -7 -23 -13 -28 -13 -4 -1 -13 -7 -20
-13 -6 -6 -127 -79 -267 -164 l-255 -153 -3 -800 -2 -801 96 -58 c127 -77 166
-101 182 -109 8 -4 53 -31 100 -61 48 -29 95 -56 105 -59 9 -4 17 -10 17 -15
0 -5 5 -9 10 -9 6 0 47 -23 91 -50 44 -28 85 -50 90 -50 5 0 9 -4 9 -10 0 -5
4 -10 10 -10 7 0 125 -69 275 -161 17 -11 37 -22 45 -26 8 -3 17 -9 20 -12 3
-3 21 -15 40 -25 19 -11 60 -36 90 -55 30 -20 57 -36 60 -36 3 0 50 -28 106
-63 56 -34 106 -62 113 -62 6 0 11 -4 11 -8 0 -5 15 -16 33 -25 17 -10 47 -26
64 -37 18 -11 48 -29 65 -40 18 -11 48 -27 66 -37 17 -9 32 -20 32 -25 0 -4 5
-8 11 -8 7 0 57 -28 113 -62 56 -35 103 -63 106 -63 3 0 30 -16 60 -36 30 -19
71 -44 90 -55 19 -10 37 -22 40 -25 3 -3 12 -9 20 -12 8 -4 33 -18 55 -32 22
-14 56 -34 75 -45 19 -11 44 -26 55 -33 11 -6 50 -31 88 -54 37 -24 69 -43 71
-43 2 0 62 -36 135 -80 72 -44 136 -80 141 -80 6 0 10 -4 10 -10 0 -5 4 -10 9
-10 9 0 87 -46 376 -222 66 -40 129 -78 140 -84 11 -6 73 -43 138 -82 65 -40
122 -72 127 -72 6 0 10 -4 10 -10 0 -5 7 -10 15 -10 8 0 15 -4 15 -10 0 -5 5
-10 10 -10 6 0 47 -22 91 -50 44 -27 82 -50 84 -50 3 0 36 -20 74 -45 100 -65
113 -68 153 -42 18 13 71 45 118 72 47 27 91 55 98 62 7 7 18 13 23 13 5 0 33
15 62 34 29 19 69 43 88 54 19 11 188 112 377 226 188 113 346 206 351 206 5
0 11 4 13 8 2 6 237 149 429 262 14 8 138 82 275 165 137 82 257 154 267 160
107 61 1083 652 1085 657 2 5 8 8 13 8 9 0 578 338 589 350 3 3 21 13 40 24
19 10 56 32 83 48 l47 30 0 803 c0 756 -1 803 -17 808 -19 6 -75 38 -83 48 -3
3 -12 8 -20 12 -8 4 -33 18 -55 31 -22 14 -67 41 -100 60 -33 20 -80 48 -105
64 -25 15 -83 50 -129 77 -46 28 -99 60 -120 73 -20 12 -52 31 -71 42 -19 11
-48 29 -65 39 -16 10 -118 70 -225 135 -107 64 -202 121 -210 126 -28 18 -174
105 -210 125 -34 20 -55 33 -130 80 -19 13 -116 71 -215 130 -99 59 -187 111
-195 116 -8 5 -58 35 -110 67 -52 32 -102 61 -110 65 -8 4 -33 18 -55 32 -22
14 -47 28 -55 32 -8 4 -17 10 -20 13 -3 4 -28 20 -57 36 -45 25 -443 264 -552
331 -20 13 -47 28 -61 35 -14 7 -29 17 -35 21 -9 8 -537 325 -612 368 -18 10
-61 37 -96 59 -35 22 -69 40 -75 40 -6 0 -12 3 -14 8 -4 8 -165 106 -190 115
-9 3 -35 -6 -60 -22z"/>
</g>
</svg>
